/* XPM */
static char *c4c3fbb12ceb4964b5fe3157b94d48b10xGmpktbD8sWtW3E[] = {
/* columns rows colors chars-per-pixel */
"32 32 33 1 ",
"  c black",
". c black",
"X c None",
"o c black",
"O c black",
"+ c black",
"@ c black",
"# c black",
"$ c black",
"% c black",
"& c black",
"* c black",
"= c black",
"- c black",
"; c black",
": c black",
"> c #DFDFDF",
", c #2F2F2F",
"< c #5F5F5F",
"1 c #9F9F9F",
"2 c gray31",
"3 c gray6",
"4 c #6F6F6F",
"5 c gray12",
"6 c gray56",
"7 c gray75",
"8 c #EFEFEF",
"9 c #AFAFAF",
"0 c gray81",
"q c gray50",
"w c #3F3F3F",
"e c black",
"r c white",
/* pixels */
"::::::::::::::::::::::::::::::::",
"::::::::::::::::::::::::::::::::",
"::::::::::::::::::::::::::::::::",
"::::::::::::::::::::::::::::::::",
"::::::::::::::::::::::::::::::::",
"::::::::;-*ee=::::::::::::::::::",
":::::::Oeeeeee=:::::::::::::::::",
"::::::$ee2979ee#::::::::::::::::",
"::::::.e2rrrrqe-::::::::::::::::",
"::::::&eqrrrr0ee$:;;;;;:::::::::",
"::::::oewrrrrr5eeeeeeee-$:::::::",
":::::::*e0rrrr6ee5wwwwee@:::::::",
":::::::=e4rrrrrrrrrrrr7ee%::::::",
":::::::#e3rrrrrrrrrrrrr4e&::::::",
"::::::::*e9rrrrrrrrrrrr>e*::::::",
":::::::% e2rrrrrrrrrrrrr,e;:::::",
"::::::=eeee8rrrrrrrrrrrr1e=:::::",
":::::#ee34q0rrrrrrrrrrrr8e@:::::",
":::::+e<rrrrrrrrrrrrrrrrree:::::",
":::::ee0rrrrrrrrrrrrrrrrree:::::",
":::::ee8rrrrrrrrrrrrrrrr9e*:::::",
":::::+eqrrrrrrrrrrrrrrrrwe=:::::",
":::::oeewqq678rrrrrrrrr7ee%:::::",
"::::::&eeeeeee6rrrrrrr03e=::::::",
":::::::%O&&-Xee51rrr9<ee-:::::::",
"::::::::::::$O+eeeeeeee-::::::::",
":::::::::::::::;-ee*@-#:::::::::",
"::::::::::::::::::::::::::::::::",
"::::::::::::::::::::::::::::::::",
"::::::::::::::::::::::::::::::::",
"::::::::::::::::::::::::::::::::",
"::::::::::::::::::::::::::::::::"
};
