/* XPM */
static char *d9245703badf4464cf78925a871656bbRFbd752DS4ntl2gn[] = {
/* columns rows colors chars-per-pixel */
"192 80 6 1 ",
"  c #000023",
". c #28314A",
"X c #711854",
"o c #304863",
"O c #9F1D33",
"+ c #362995",
/* pixels */
" +  +++  ++ ++                                                                                                               ..                                                                 ",
"+++++++ ++++ +++ +++ +++ +++  +++ +++ +++ ++  ++                                                                           .....                                                                ",
"++++++++++++++++ +++ +++ +++ ++++  ++ +++ +++ ++                     +                                                   .  ...                             ..                                  ",
" ++++++ ++++++++ +++ +++ +++ ++++ +++ +++ +++ ++     +  +            +  +            +              +++ +++             ...  ..                            ....     .             .ooo          ",
"++++++   ++ ++++                               +  +  +  +  +   +  +  +  +  +  ++  +  ++       +   +  +  ++   +          ....                              .....    ....          ...ooo     oo  ",
" +++++ ++     +   +++ +++ +++ +++++ +++ +++ +++++ +  +  +  + ++++ +  +  +  + ++++ +  ++      ++  +++       ++++         ...                       ....   ......   .....            ...oo  ooooo ",
"+++ ++ ++   ++  + +++ +++ +++ +++++ +++ +++ +++++ +  ++++  + ++++ +  ++++  + ++++ +  + +     ++   +         ++           .   .               ..  ......  ......  .......             ..o oo...o ",
"+++  +++++ ++++ + +++ ++  +++ ++++  +++ + + ++++  ++++  ++++  ++  ++++  ++++  ++  + ++ + +++  + +              +           ...              .... .......  ....   ......               .ooo..    ",
" +   +++++ +++++                               + ++  +  +  ++ ++ ++  +  +  ++ ++ +++ + +   ++ + +++        +  ++            ...             ....  ......          ..                ooo.o..     ",
"++   +++++ +++++ +++ + + +++  ++++ +++  ++ +++ +  +  +  +  +  ++  +  +  +  +   +  +  +  +  +  + +++ ++    +++ ++           ....             .....  .....    ..            .        ooo...oo     ",
"+++++++++   ++++ +++ +++ +++ +++++ +++ +++ +++ +  +  +  +  +  ++  +  +  +  +  ++  +  +  + +   + ++  ++++ +++  +              ..              .....   ..   .....          ...      oo... ..oo    ",
"++++++  +++  +   +++ +++ +++ +++++ +++ +++ +++ + ++++++++++++ +  ++++++++++++ ++ ++++++++++++ +    ++++   +++            ..   .         ...   ....       ......  .. ..  .....     o..    ..oo   ",
" ++     +++ +++                                +  +  +  +  +  ++  +  +  +  +  ++  +  +  + +   + ++  +   +  +  ++        ....           .....  .....      .....  ....... .....     ..      ..o   ",
" +++ ++ +  +++++++ +++ +++ +++ ++++ +++ +++ +++++            ++++            ++++            ++ +++   ++++   +++          ....         ...... .....  ..  ....   .......  ....      .        .   ",
"++++++++++++++++++ +++ +++ ++  ++++ +++ +++ ++++++++++++++++++++++++++++++ ++++++++++  ++++++++  +++ ++++  ++++         .. ..          .....   ...  .... ....   ......    ..                    ",
" +++ +  ++  +++ ++  ++ +++ +++ +++  +++ +++ +++++++++++++++++++++++++++++++++++++++++++++++++++   ++  ++++ +++           ...            ..          ....  ..    ....                            ",
"                                        +                    +                                                                    ...             .          ... ..                             ",
" +++ +++ ++  ++++++   ++++   +++       ++    +    +         ++                                                     oo            .....     ..    ...       .....       ..                       ",
"++++ +++ +++ +++++ +++ ++ +++ ++       ++    ++  ++         +++                                                   o .     o      .....   .....   ...   ...  ...      .....                      ",
"+ ++ +++ +++ ++ + +++  ++  +++ +  +    ++   +++  +++       ++++        ++         ++                 +++         ... .   o .     .....  ......  ..... .....  ..     ......                oooo  ",
"                 + +        +     ++   +++  +++  +++       ++++      +++++       ++++++            ++++++         ....  o  ..   ......  ......  .....  .....        .....    ..  oooo    ooo... ",
"+++ +++ +++ +++ +++          +++ +++  ++++  +++  +++   +   +++++    ++ ++++     ++  ++++          ++ +++            .   ....    .....   ....... ....   ....     ..   ....   ....oo..oo   oo..   ",
"+++ +++ +++ +++ + +          + + ++   ++++  +++  +++  ++    ++++   ++ +++++     ++++++++  +++    ++  ++  +++             . .    ..     ........  .       .   .  ...  ....   .........oo  o..    ",
"+++ +++ + + +++ ++            ++ +++  ++++ ++++ +++++ +++  +++++   +++++         +++++++ + +++   +++++  ++ +++                         .... ..     . ...   ...  ...   ..   ..... .  ..o oo.     ",
"                 +            +  +++  +++  ++++ +++++  ++ ++++++    ++   +++       +++   ++++++   ++++ ++  ++++                   ..    ..       ...  ...  .... ..        .....     ..o oo  ooo ",
" + +++  ++ ++++ +++          +++ ++++  +++ ++++ +++++ +++ ++++++  +    +++ +++   +         ++++         +++++++             oo   ....            ....  ..  ....       ..  .....      .o o. ooooo",
"++ +++ +++ ++++++              ++++++  +++  +++ ++++  +++  +++++ +++  +++   +++  +++  +++   ++    +++++   +++++             o . ......    ..    ......       ...    .....  ..        ..oo.oo...o",
"++ +++ +++ + ++++++          ++++++++ +++++ ++++++++ +++++ ++++ +  ++ ++ +++++++  +  ++++++      ++  ++++                  . ... .....   ....    .....   ..   .    ......          oo ......  ..",
"                 ++          ++  + ++ +++++ ++++ +++ +++++  +++++++++  +++++++++    ++  +++++    +++  + ++  ++             ....  .....  ......          ....       ......         ooooo...     .",
" +++ +++ +++ ++++              + ++++ ++++ ++++++++++ ++++ +++++ +++++  ++++++++    +++ ++++++   ++++++++  ++++             .    ....  .......    ..   .......      .....     .     ..oo.       ",
"++++ +++ +++ +++++            ++++++ ++++++++++++++++++++++ ++++  +++     +++++      +++++++++    +++++++ +++++                        ......    ....   .....   ..    ..   ....                 ",
"+++  +++ +++ ++++++          ++++++++++ +++++ ++++ +++++ +++++++                       ++++++      +++++  ++++                     ..   ..       ...     ...    ...      ......                 ",
"           +                                       ++              ++                                                             ....                 ..     ..... ..  .......                 ",
"           +                       +++++           ++++            ++                     ++                                 oo   ....    ...         ....      ......  ......                  ",
"           +                      +++ +++          ++++++          +     ++         ++    ++         ++            o        o .    ..    .....        .....      .....   ....                   ",
"+        ++        ++++++        +++   +++        ++++ ++            ++++++         ++++             ++            o       o.o .         .....  ..     ...  ..    ....    ..         ooo        ",
"++      + +       ++++ +++       ++++ ++++       ++ ++  ++       ++++++++             ++++        +++++++++      . ..       ....     ...  ...  ......      .....   ..               ooooo       ",
" +++   +++ +     ++++   +++      ++++ ++++       +  ++++++++   ++++++                   ++++      ++++++ ++          .    o   .     ..... .... .......     ......     ..              .oo   oo  ",
" + ++   ++++     +++++ ++++      +++++++++      +++++++++++    ++                         ++++                                       .... ....  ......    .......  ......         ooo  .oo ooo. ",
" +++++    +      +++++ ++++      +++++++++     ++++++++  +          ++                 ++   ++        +          . .    o .          ...   ..    ....     ......  .......        ooooo .oo.o. . ",
"   +++   +       ++++++++++      +++++++++       ++  ++ ++          ++                 ++            ++             .    o .                     ....  ..  ..     ......         o ...o o...    ",
"   + +   +       ++    +  +      +++++++++        ++ +++++          ++                ++             ++              .                            ..  ....         ....              .oo.o      ",
"    +    +   +   ++++++++++      ++      +         ++++++           ++                ++             ++                   .                 ..        ....           ..             ooo...oo    ",
"    +    +   +   +++  +   +      +++++++++          ++++             ++              ++              ++          ..    .    .              ....        ..        ..                oo... ...o   ",
"     +  +   +     +++++++++       ++ +  ++            ++             ++              ++              ++   ++        . .       .             ...  ...            ....               o..    ...   ",
"     +  +   +    +++            +  ++++++             ++++          +++ +++      +++++++         ++  ++  ++++                . .            ... .....           ....                .      ..   ",
"      + +  +    ++++++++++++++ +++        +++    +++ ++++++++     +++++++++++   +++++++++ ++   +++++  ++++++++               .                  .....            ..                             ",
"      + +  +   +++ ++++++++++++++++++++++++++++++++++++++++++++++++++++++++++++++++++++++++++++++++++++++++++++                                    .             .                              ",
" +                                                                                                +  +      +                                                                                   ",
" +        +                           +                           +                        +  ++ +    ++   ++++                                                                                 ",
" +        +                          + +              ++          ++        +              ++ + ++     + +++                                                                                    ",
"  ++     +                             ++            ++            ++ ++   ++          +    +++  ++    +++                                                                                      ",
"  + +    + +      + +    + +      +   ++            ++      +       +++   ++           ++  +++    +++ +++                                X                  X                                   ",
" + +++ +++++     +++    + +        + ++  + +    +   ++       +      ++    ++            + +++      +++++                                XXXX        X      XXX          o                       ",
" +++++  + +     +  ++     +  +  + +++++++   +  ++  ++         +      ++  ++             ++++        ++++  ++                           XXXXXX     XXXX      .X    o    o                        ",
"  + +    +++       ++  +   ++    ++   +   +  + +   ++   +     +      ++ +++             +++         + +++++ +         XX            XX  .X       XXXXXX    ..      o   .                o       ",
"   +    ++++      ++    +    + + +  +    +  ++ ++  +++  ++  +++      +++++        +    +++         ++  ++           XXXXX          XXXX .  X       .XX             o   .                .       ",
"   +     + +     ++ + + + +  ++ +++  +  ++ +    ++  ++   +++++        ++++        ++  ++++          ++ +           XXXXXXX        XX.XX . XXX     ..               .      o         o           ",
"   +    ++ ++   ++    +  +   +  +   + +  ++  +   +++++    ++          ++++         ++  ++           ++++             .XXXX          .. ..  .X      .     XX        . o   .o         o           ",
"   +     +      +++  +   ++ ++  ++    +   + + +   +++++ +++           +++           +++++          ++++             ...              ...  ..            XXXX        ..   .  oo       .     o    ",
"    +   +        +   + + +  + +  ++    +  ++       ++++++++            +++           +++           +++               .                ....             XX.XX                .                   ",
"    +   +        ++ ++  ++ ++     +  ++   ++     +++++++++             ++++         ++++          ++++                                  .                ..                                     ",
"    +   +       + ++ ++ +  +++  ++++  ++ ++++   ++  +++++   ++        +++++         ++++         ++++++ ++                                                ..                                    ",
"    +   +      + ++++ +++ ++ +++++ +++ +++ +++++     +++++   ++       ++++          +++         ++ ++++++ +                                                                                     ",
" +          +                          +              +++++   +       ++ +         ++++                                                                                                         ",
" +          +    ++++ +                +          +    +++++  +      ++  +         ++++                               X   XX                                                                    ",
" +          +   ++  ++                ++           +    ++++ ++      ++  +         +++++                                XX XX                                                                   ",
"  ++      ++   ++ +  ++ +          + +++         ++++  +++++++        ++ +          ++++                              XX  XXX                                                                   ",
"  + +    + +    +     +  +         ++++         ++  ++++++++++       +++++          ++++                            XX XXXX                                              o                      ",
" + +++  +++ +        ++ +          ++ ++              +++++++        +++++           ++++                         XX  XXX                                          o     o                      ",
" +++++   ++++     ++  +++          +   +               ++++++       +++++++          +++++                        XXXXX                                             o   o                       ",
"  + +      +   + +    ++           +  +++             +++++++       +++++++         ++++++                         XX   X               X           OOOOOOOO        o   o    o                  ",
"   +      +     ++   ++            ++ +++           ++++++++         +++++          ++++++                              X           XXXXXXXXX      OOOOOOOOOO       .   .    oo                 ",
"   +      +     +  + ++ ++        ++++++          +++++++++++       ++++++           ++ +++                             X           X     X X     OOOOO  OOOXX       .  .   o                   ",
"   +      +    ++   +++  ++       +++++++         +++++++ ++++     ++++++++         ++  +++                              X          XXXXXXXXX         OOOO         . . .    .                   ",
"   +      +     ++  ++    ++     +++++++++       +++++++   +++     +++++++++       +++   +++                             X          X   X   X     OOO      XXX   o ... .   .                    ",
"    +    +       ++  ++  ++      ++++++++++      ++++++     +++   ++++++++++      +++++  +++                             X          XXXXXXXXX     OOOOOOOXXXXX   o   . ..  .                    ",
"    +    +        ++++++ +  +   +++  ++++       +++ ++++     ++  ++  ++++++ +     +++ + +++++                             X                       OOOOOOXXXXXX   ..        .                    ",
"    +    +      +  +++++++++++ +++  ++++++  +  ++++  +++ +  +++ ++  ++++ +++++ + +++  ++++ +++                            X             X         XOOOOXXXXXXX                                  ",
"    +    +     + +++ ++++++++++++    +++++++++ ++ ++  ++++ ++++++++  ++   ++++++++   +++    +++                           X             X         XXXXXXXXXXXX                                  "
};
